<?xml version="1.0" encoding="utf-8"?>
<!-- Generator: Adobe Illustrator 26.3.1, SVG Export Plug-In . SVG Version: 6.00 Build 0)  -->
<svg version="1.1" id="Layer_1" xmlns="http://www.w3.org/2000/svg" xmlns:xlink="http://www.w3.org/1999/xlink" x="0px" y="0px"
	 viewBox="0 0 54.3 54.4" style="enable-background:new 0 0 54.3 54.4;" xml:space="preserve">
<style type="text/css">
	.st0{fill:#FFFFFF;stroke:#FFFFFF;stroke-miterlimit:10;}
</style>
<g>
	<path class="st0" d="M41.8,26.9c-0.8-0.8-1.4-1.5-1-2.7c0.2-0.5,0.2-1,0.2-1.5c0.1-0.4,0-0.6-0.5-0.6c-1.4,0-2.7,0-4.1,0
		c-0.2,0-0.6-0.1-0.6,0.3c0,0.4,0.2,0.4,0.5,0.5c1.3,0.4,2.6,1,3.4,2.1c0.7,0.9,1.3,1.7,2,2.5c2.5,2.8,4.7,5.7,7.2,8.6
		c2.5,2.9,2.1,7-0.9,9.4c-2.1,1.7-4.1,3.4-6.2,5c-2.7,2.2-6.3,2-8.7-0.5c-1.8-1.9-3.4-4-5-6c-1.7-2-3.3-4.2-5-6.3
		c-1-1.3-1.2-3-1-4.6c0.1-1.2,0.4-2.4,1-3.5c0.2-0.4,0.1-0.5-0.3-0.5C19.8,29.5,17,30,14.3,31c-0.2,0.1-0.5,0.1-0.3,0.5
		c1.3,2.7,2.9,5.1,5.6,6.5c0.9,0.5,1.9,0.8,2.9,0.8c1,0.1,1.1,1,1.7,1.5c-4.8,0.5-12.2-1.6-16.7-8c-4.9-7-4.8-15.9,0.2-22.8
		C12.5,2.9,21.2,0.1,29,2.5c7.9,2.5,12.5,9.3,13.4,15.3c-0.9-0.8-1.9-1.2-2.2-2.4c-0.5-1.8-1.4-3.3-2.5-4.8
		c-0.3-0.4-0.5-0.5-0.9-0.2c-0.6,0.4-1.3,0.8-2,1.1c-0.3,0.2-0.5,0.3-0.3,0.7c0,0.1,0,0.1,0.1,0.2c0.4,1.3,0.4,1.2-0.9,1.2
		c-0.5,0-0.6-0.3-0.6-0.6c-0.1-0.5-0.3-0.6-0.8-0.4c-6.1,2.1-12.2,2.1-18.3,0c-0.5-0.2-0.6-0.1-0.7,0.4c-0.7,2.2-1.1,4.5-1.2,6.8
		c-0.1,0.6,0.2,0.8,0.8,0.8c4,0,8.1,0,12.1,0c0.3,0,1-0.3,0.9,0.5c0,1.1,0,1.1-1,1.1c-4,0-7.9,0-11.9,0c-0.9,0-0.9,0-0.8,0.9
		c0.1,2,0.5,4,1.1,5.9c0.2,0.5,0.3,0.7,0.9,0.5c2.7-1,5.5-1.5,8.4-1.6c0.6,0,1.1-0.1,1.7,0c0.3,0.1,0.4-0.1,0.5-0.3
		c0.5-0.6,1-1.2,1.7-1.6c0.2,0.4,0.3,0.8,0.5,1.1c0.2,0.4-0.1,0.5-0.3,0.7c-1.3,1.4-2.3,2.9-2.7,4.7c-0.4,1.6-0.3,3.1,0.5,4.5
		c0.2,0.4,0.5,0.7,1,0.6c2.6-0.3,4.9-1.3,7-2.8c2.7-1.9,4.8-4.4,6-7.5c0.4-1.1,0.4-1.2-0.6-1.9c-2-1.3-4.1-1.3-6.2-0.7
		c-0.7,0.2-1.4,0.4-2,0.8c-0.4,0.3-0.6,0.1-0.7-0.3c-0.4-0.9-0.4-1,0.5-1.4c1.4-0.7,2.9-1.1,4.5-1.1c0.2,0,0.5,0.1,0.5-0.3
		c0-0.4-0.3-0.3-0.5-0.3c-1.6,0-3.2,0-4.8,0c-0.4,0-0.7,0-0.7-0.6c0-0.9,0.1-1.1,0.8-1.1c1.6,0,3.1,0,4.7,0c0.5,0,0.7-0.1,0.6-0.6
		c-0.1-1-0.2-2-0.3-2.9c-0.1-0.5,0-0.7,0.6-0.6c1,0.1,1,0.1,1.1,1.1c0.1,0.8,0.1,1.6,0.2,2.5c0,0.4,0.2,0.5,0.5,0.5
		c1.4,0,2.8,0,4.2,0c0.1,0,0.3,0,0.4,0c0.2,0,0.1-0.6,0.5-0.3c0.4,0.4,1.2,0.5,1.3,1.2C42.7,23.3,42.3,25.1,41.8,26.9z M15.4,37
		c0.1,0,0.1,0.2,0.2,0.1c0.1,0,0-0.2-0.1-0.2c-0.9-1.1-1.7-2.2-2.4-3.5c-0.3-0.5-0.3-1.4-0.9-1.4c-0.5,0-1.1,0.5-1.6,0.8
		c0,0,0,0-0.1,0c-0.3,0.2-0.3,0.3-0.1,0.6C11.9,34.9,13.5,36.2,15.4,37z M37.7,50.6c1.1,0,2.1-0.3,2.9-1c2.2-1.8,4.4-3.5,6.6-5.4
		c2.1-1.8,2.3-4.7,0.5-6.9c-2.5-3-5-6.1-7.5-9.1c-0.4-0.5-0.5-0.5-0.8,0.1c-1.2,2.8-3.1,5.2-5.5,7.1c-2.2,1.7-4.6,2.9-7.4,3.5
		c-0.3,0.1-0.7,0-0.3,0.6c2.6,3.1,5.2,6.2,7.8,9.4C34.9,50,36.2,50.5,37.7,50.6z M23,12.5c1.2,0,2.3-0.1,3.5-0.3
		c1.8-0.2,3.5-0.6,5.3-1.2c0.3-0.1,0.5-0.2,0.3-0.6c-0.9-1.9-2.1-3.7-3.7-5.1c-3.1-2.7-6.8-2.8-10-0.3c-1.8,1.4-3,3.2-4,5.2
		c-0.2,0.5-0.2,0.7,0.4,0.9C17.3,12,20.1,12.5,23,12.5z M7.8,20.5c0.7,0,1.3,0,2,0c0.3,0,0.5-0.1,0.5-0.5c0.1-2.7,0.5-5.4,1.4-8
		c0.1-0.3,0-0.4-0.2-0.6c-0.7-0.4-1.3-0.7-2-1.1c-0.2-0.1-0.4-0.2-0.6,0.1c-2.1,2.9-3.2,6.1-3.5,9.6c0,0.4,0.1,0.5,0.5,0.4
		C6.6,20.5,7.2,20.5,7.8,20.5z M7.9,22.1c-0.7,0-1.3,0-2,0c-0.3,0-0.4,0-0.4,0.4c0.3,3.3,1.4,6.2,3.3,8.9c0.2,0.3,0.4,0.4,0.7,0.2
		c0.6-0.4,1.3-0.8,1.9-1.1c0.2-0.1,0.4-0.2,0.3-0.6c-0.8-2.4-1.2-4.9-1.4-7.4c0-0.4-0.2-0.4-0.5-0.4C9.2,22.2,8.6,22.1,7.9,22.1z
		 M30,4.7c1.2,1.2,2.1,2.5,2.9,3.8c0.3,0.6,0.3,1.6,1,1.6c0.6,0,1.2-0.6,1.8-0.9c0.4-0.2,0.4-0.4,0.1-0.8c-1.2-1.2-2.6-2.2-4.1-3
		C31.2,5.1,30.7,4.8,30,4.7z M15.8,5.1c-0.2-0.1-0.4,0-0.5,0.1c-1.3,0.7-2.5,1.5-3.6,2.4C10,9.1,10,9.2,12.1,10c0,0,0,0,0.1,0
		c0.2,0.1,0.3,0.1,0.4-0.1C13.4,8.1,14.4,6.5,15.8,5.1z"/>
	<path class="st0" d="M27.7,22.2c0.1,2.9,1.3,5.3,3,7.6c0.1,0.2,0.5,0.4,0.4,0.7c-0.2,0.3-0.5,0.6-0.9,0.8c-0.2,0.1-0.3-0.1-0.4-0.2
		c-2-2.6-3.5-5.3-3.5-8.6c-0.1-3.7,1.9-7,5.4-8c1.2-0.3,2.5-0.2,3.7,0.1c2,0.5,3.7,1.3,5.2,2.7c1.4,1.3,2.9,2.3,4.8,2.7
		c0.6,0.1,1.3,0.2,1.8-0.1c0.6-0.3,0.8,0,1.1,0.5c0.4,0.8,0.4,0.8-0.4,1c-1.6,0.5-3.1,0.3-4.5-0.4c-1.3-0.6-2.4-1.6-3.6-2.5
		c-1.4-1.1-2.9-2.1-4.7-2.5c-2.8-0.8-4.9,0.4-6.4,2.6C27.9,19.8,27.7,20.6,27.7,22.2z"/>
	<path class="st0" d="M15.6,36.9c0.1,0.1,0.1,0.2,0.1,0.2c-0.1,0.1-0.1-0.1-0.2-0.1C15.5,37,15.5,36.9,15.6,36.9z"/>
</g>
</svg>
